<svg aria-hidden="true" xmlns="http://www.w3.org/2000/svg" id="Layer_1" enable-background="new 0 0 512 512" height="512" viewBox="0 0 512 512" width="512"><g><path d="m256 21.995c-135.311 0-245.002 109.691-245.002 245.002 0 52.367 16.439 100.889 44.425 140.708l286.822 88.666c92.755-34.893 158.757-124.419 158.757-229.373 0-135.311-109.691-245.003-245.002-245.003z" fill="#ffdd40"></path><path d="m231.432 113.764c0-9.306 1.146-18.348 3.29-27.001h-136.783c-3.034 0-5.995.316-8.855.911-12.847 11.963-24.404 25.288-34.446 39.748-.057.906-.096 1.818-.096 2.738v276.275c10.451 15.071 22.551 28.912 36.035 41.265l216.579 58.936c12.562-2.672 24.769-6.302 36.54-10.816v-269.794c-61.903 0-112.264-50.36-112.264-112.262z" fill="#167cc1"></path><path d="m162.165 480.399-2.113-336.11c-.003-.492-.185-.964-.49-1.35-5.347-6.752-2.011-11.404.082-13.366.685-.642.846-1.673.417-2.508-2.463-4.796.815-7.829 2.195-8.834.379-.276.648-.676.779-1.126l3.773-13.061c.203-.703.041-1.471-.449-2.014-6.459-7.16-1.993-12.277.494-14.304.318-.259.539-.596.664-.963h-69.578c-23.929 0-43.397 19.468-43.397 43.397v276.273c10.054 14.499 21.633 27.858 34.503 39.85z" fill="#024788"></path><path d="m81.542 195.887v243.108c44.43 45.062 106.177 73.005 174.458 73.005 20.951 0 41.285-2.636 60.695-7.583v-281.681c-18.787-4.656-35.72-14.055-49.454-26.849z" fill="#e9efff"></path><path d="m81.542 438.996c22.271 22.587 48.888 40.875 78.506 53.494v-296.603h-78.506z" fill="#d3dcfb"></path><g><path d="m167.149 117.862h-4.333c-4.142 0-7.5-3.357-7.5-7.5s3.358-7.5 7.5-7.5h4.333c4.142 0 7.5 3.357 7.5 7.5s-3.358 7.5-7.5 7.5z" fill="#1e92d3"></path></g><g><path d="m234.384 117.862h-41.638c-4.142 0-7.5-3.357-7.5-7.5s3.358-7.5 7.5-7.5h41.638c4.142 0 7.5 3.357 7.5 7.5s-3.358 7.5-7.5 7.5z" fill="#1e92d3"></path></g><path d="m233.653 136.029h-83.035c-6.6 0-12-5.4-12-12 0-5.67-4.596-10.266-10.266-10.266h-30.413c-9.056 0-16.397 7.341-16.397 16.397v68.385h188.644c-18.379-15.956-31.535-37.775-36.533-62.516z" fill="#9bd8f9"></path><path d="m150.618 136.029c-6.6 0-12-5.4-12-12 0-5.67-4.596-10.266-10.265-10.266h-30.414c-9.056 0-16.397 7.341-16.397 16.397v68.385h78.505v-62.517h-9.429z" fill="#73c3f9"></path><g fill="#1e92d3"><path d="m316.695 210.236c-4.142 0-7.5 3.357-7.5 7.5v288.455c5.06-1.12 10.063-2.392 15-3.819v-284.636c0-4.142-3.358-7.5-7.5-7.5z"></path><path d="m89.042 446.282v-316.122c0-4.906 3.991-8.897 8.897-8.897h30.414c1.525 0 2.766 1.24 2.766 2.765 0 10.752 8.748 19.5 19.5 19.5h88.035c4.142 0 7.5-3.357 7.5-7.5 0-4.142-3.358-7.5-7.5-7.5h-88.035c-2.439 0-4.5-2.06-4.5-4.5 0-9.796-7.97-17.765-17.766-17.765h-30.414c-13.177 0-23.897 10.721-23.897 23.897v300.892c4.776 5.293 9.784 10.371 15 15.23z"></path></g><path d="m159.644 129.573c.306-.286.489-.655.58-1.044h-9.606c-2.439 0-4.5-2.06-4.5-4.5 0-9.796-7.97-17.765-17.766-17.765h-30.413c-13.177 0-23.897 10.721-23.897 23.897v300.892c4.776 5.293 9.784 10.371 15 15.23v-316.123c0-4.906 3.991-8.897 8.897-8.897h30.414c1.525 0 2.766 1.24 2.766 2.765 0 10.752 8.748 19.5 19.5 19.5h9.281c-.083-.21-.195-.41-.337-.59-5.347-6.751-2.011-11.404.081-13.365z" fill="#167cc1"></path><path d="m241.934 157.106h-81.585v26.286h94.292c.568 0 1.124-.048 1.674-.118-5.892-7.984-10.75-16.772-14.381-26.168z" fill="#e9efff"></path><path d="m161.349 157.106h-14.752c-7.259 0-13.143 5.884-13.143 13.143s5.884 13.143 13.143 13.143h14.752z" fill="#3c58a0"></path><g><path d="m116.535 141.832h-10.334c-4.142 0-7.5-3.357-7.5-7.5s3.358-7.5 7.5-7.5h10.334c4.142 0 7.5 3.357 7.5 7.5s-3.358 7.5-7.5 7.5z" fill="#e9efff"></path></g><path d="m279.821 344.5h-161.405c-5.445 0-9.899-4.455-9.899-9.899v-87.32c0-5.445 4.455-9.899 9.899-9.899h161.405c5.445 0 9.899 4.455 9.899 9.899v87.32c0 5.445-4.454 9.899-9.899 9.899z" fill="#ff4155"></path><path d="m108.517 247.281v87.32c0 5.445 4.455 9.899 9.899 9.899h103.706c-.316-.525-.778-.97-1.374-1.255-8.068-3.848-7.854-10.046-6.848-13.692.443-1.607-.374-3.315-1.94-3.886-14.32-5.216-11.761-18.034-10.633-21.86.218-.739.172-1.527-.14-2.232l-10.99-24.823c-.479-1.081-1.51-1.839-2.69-1.908-9.687-.567-11.434-8.464-11.672-12.684-.084-1.484-1.191-2.714-2.656-2.964-16.049-2.743-14.719-15.34-13.63-20.039.139-.601.094-1.214-.103-1.775h-41.029c-5.446 0-9.9 4.454-9.9 9.899z" fill="#e80054"></path><g><path d="m138.23 382.003h-5c-4.142 0-7.5-3.357-7.5-7.5 0-4.142 3.358-7.5 7.5-7.5h5c4.142 0 7.5 3.358 7.5 7.5 0 4.143-3.357 7.5-7.5 7.5z" fill="#ff4155"></path></g><g><path d="m113.517 382.003h-5c-4.142 0-7.5-3.357-7.5-7.5 0-4.142 3.358-7.5 7.5-7.5h5c4.142 0 7.5 3.358 7.5 7.5 0 4.143-3.358 7.5-7.5 7.5z" fill="#ff4155"></path></g><g><path d="m289.721 382.003h-94.074c-4.142 0-7.5-3.357-7.5-7.5 0-4.142 3.358-7.5 7.5-7.5h94.074c4.142 0 7.5 3.358 7.5 7.5 0 4.143-3.358 7.5-7.5 7.5z" fill="#bec8f7"></path></g><g><path d="m195.647 382.003h-37.083c-4.142 0-7.5-3.357-7.5-7.5 0-4.142 3.358-7.5 7.5-7.5h37.083c4.142 0 7.5 3.358 7.5 7.5 0 4.143-3.358 7.5-7.5 7.5z" fill="#ff4155"></path></g><g><path d="m195.648 389.882c-4.142 0-7.5-3.357-7.5-7.5v-15.5c0-4.143 3.358-7.5 7.5-7.5s7.5 3.357 7.5 7.5v15.5c0 4.143-3.358 7.5-7.5 7.5z" fill="#e80054"></path></g><ellipse cx="199.118" cy="290.941" fill="#e9efff" rx="39.071" ry="39.071" transform="matrix(.16 -.987 .987 .16 -119.961 440.885)"></ellipse><path d="m211.959 325.668c-14.32-5.216-11.761-18.034-10.633-21.86.218-.739.172-1.527-.14-2.232l-10.99-24.823c-.479-1.081-1.51-1.839-2.69-1.908-9.687-.567-11.434-8.464-11.672-12.684-.042-.747-.345-1.43-.821-1.955-9.108 7.153-14.965 18.257-14.965 30.736 0 21.578 17.493 39.071 39.071 39.071 5.145 0 10.053-1.004 14.551-2.811-.347-.69-.936-1.252-1.711-1.534z" fill="#bec8f7"></path><path d="m213.804 286.915-19.081-12.199c-3.18-2.033-7.352.251-7.352 4.026v24.398c0 3.775 4.172 6.059 7.352 4.026l19.081-12.199c2.939-1.879 2.939-6.173 0-8.052z" fill="#ff4155"></path><g><path d="m180.747 414.763h-72.23c-4.142 0-7.5-3.357-7.5-7.5s3.358-7.5 7.5-7.5h72.23c4.142 0 7.5 3.357 7.5 7.5 0 4.142-3.358 7.5-7.5 7.5z" fill="#bec8f7"></path></g><g><path d="m289.721 444.145h-181.204c-4.142 0-7.5-3.358-7.5-7.5 0-4.143 3.358-7.5 7.5-7.5h181.204c4.142 0 7.5 3.357 7.5 7.5 0 4.142-3.358 7.5-7.5 7.5z" fill="#bec8f7"></path></g><path d="m289.721 456.922h-181.204c-1.9 0-3.63.712-4.952 1.877 5.833 4.642 11.884 9.02 18.133 13.123h168.023c4.142 0 7.5-3.357 7.5-7.5s-3.358-7.5-7.5-7.5z" fill="#bec8f7"></path><path d="m289.721 484.7h-146.2c11.395 5.899 23.313 10.925 35.665 15h110.534c4.142 0 7.5-3.357 7.5-7.5.001-4.142-3.357-7.5-7.499-7.5z" fill="#bec8f7"></path><circle cx="343.695" cy="113.763" fill="#2a428c" r="113.763"></circle><path d="m387.182 155.35c.097-1.953-.613-3.856-1.996-5.239l-6.662-6.662c-1.2-1.2-2.808-1.891-4.502-1.997-21.61-1.357-22.772-19.765-22.708-24.531.011-.815-.137-1.622-.417-2.387l-5.878-16.076c-.837-2.287-2.829-3.926-5.219-4.394-51.017-9.995-39.706-68.875-35.972-83.791.258-1.031.257-2.089.037-3.098-43.184 16.144-73.934 57.773-73.934 106.589 0 62.83 50.933 113.763 113.763 113.763 7.325 0 14.484-.701 21.424-2.023l30.396-60.95c-7.418-1.528-8.482-6.176-8.332-9.204z" fill="#1c2e7a"></path><g><path d="m299.712 152.603-33.304-33.304c-3.057-3.057-3.057-8.015 0-11.072l33.304-33.304c3.057-3.057 8.014-3.058 11.072 0 3.057 3.057 3.058 8.015 0 11.072l-27.768 27.769 27.768 27.768c3.057 3.057 3.057 8.015 0 11.072-3.058 3.057-8.014 3.056-11.072-.001z" fill="#4b6bb2"></path></g><g><path d="m376.607 152.603c-3.057-3.057-3.057-8.014 0-11.072l27.768-27.768-27.769-27.768c-3.057-3.057-3.057-8.015 0-11.072 3.058-3.058 8.015-3.058 11.072 0l33.305 33.304c3.055 3.056 3.057 8.015 0 11.072l-33.304 33.304c-3.057 3.057-8.014 3.058-11.072 0z" fill="#4b6bb2"></path></g><g><path d="m325.589 154.213c-3.947-1.766-5.714-6.398-3.948-10.344l29.816-66.608c1.767-3.946 6.399-5.713 10.344-3.947 3.947 1.767 5.714 6.398 3.947 10.344l-29.816 66.608c-1.76 3.934-6.385 5.718-10.343 3.947z" fill="#4b6bb2"></path></g><path d="m441.789 192.471h-9.091c-2.402 0-4.356-1.954-4.356-4.356v-9.091c0-10.81-7.631-14.419-12.5-15.622h-67.236c-2.738 0-4.958 2.22-4.958 4.958v152.775c0 2.738 2.22 4.958 4.958 4.958h103.848c2.738 0 4.958-2.22 4.958-4.958v-117.961c-2.916-10.459-15.475-10.701-15.623-10.703z" fill="#e9efff"></path><path d="m383.069 301.465v-113.435c0-13.601 11.026-24.628 24.627-24.628h-59.09c-2.738 0-4.958 2.22-4.958 4.958v152.775c0 2.738 2.22 4.958 4.958 4.958h59.09c-13.601 0-24.627-11.026-24.627-24.628z" fill="#d3dcfb"></path><path d="m452.296 187.958-19.44-19.44c-3.275-3.275-7.718-5.115-12.35-5.115h-8.628s15.862.242 15.862 15.622v9.091c0 2.738 2.22 4.958 4.958 4.958h9.091s15.622.128 15.622 14.771v-7.537c0-4.632-1.84-9.075-5.115-12.35z" fill="#bec8f7"></path><g fill="#73c3f9"><path d="m414.045 238.911h-31.483c-2.841 0-5.145-2.303-5.145-5.145s2.304-5.145 5.145-5.145h31.483c2.841 0 5.145 2.303 5.145 5.145s-2.303 5.145-5.145 5.145z"></path><path d="m439.22 218.407h-26.082c-2.841 0-5.145-2.303-5.145-5.145s2.303-5.145 5.145-5.145h26.082c2.841 0 5.145 2.303 5.145 5.145s-2.304 5.145-5.145 5.145z"></path><path d="m395.563 218.407h-13.001c-2.841 0-5.145-2.303-5.145-5.145s2.304-5.145 5.145-5.145h13.001c2.841 0 5.145 2.303 5.145 5.145s-2.303 5.145-5.145 5.145z"></path><path d="m439.22 258.586h-26.082c-2.841 0-5.145-2.303-5.145-5.145s2.303-5.145 5.145-5.145h26.082c2.841 0 5.145 2.303 5.145 5.145s-2.304 5.145-5.145 5.145z"></path><path d="m395.563 258.586h-13.001c-2.841 0-5.145-2.303-5.145-5.145s2.304-5.145 5.145-5.145h13.001c2.841 0 5.145 2.303 5.145 5.145s-2.303 5.145-5.145 5.145z"></path><path d="m386.377 279.088h-3.814c-2.841 0-5.145-2.303-5.145-5.145s2.304-5.145 5.145-5.145h3.814c2.841 0 5.145 2.303 5.145 5.145s-2.304 5.145-5.145 5.145z"></path><path d="m439.22 279.088h-35.644c-2.841 0-5.145-2.303-5.145-5.145s2.303-5.145 5.145-5.145h35.644c2.841 0 5.145 2.303 5.145 5.145s-2.304 5.145-5.145 5.145z"></path></g><path d="m366.783 238.911h-4.943c-2.841 0-5.145-2.303-5.145-5.145s2.304-5.145 5.145-5.145h4.943c2.841 0 5.145 2.303 5.145 5.145s-2.304 5.145-5.145 5.145z" fill="#4b6bb2"></path><path d="m366.783 218.407h-4.943c-2.841 0-5.145-2.303-5.145-5.145s2.304-5.145 5.145-5.145h4.943c2.841 0 5.145 2.303 5.145 5.145s-2.304 5.145-5.145 5.145z" fill="#4b6bb2"></path><path d="m366.783 258.586h-4.943c-2.841 0-5.145-2.303-5.145-5.145s2.304-5.145 5.145-5.145h4.943c2.841 0 5.145 2.303 5.145 5.145s-2.304 5.145-5.145 5.145z" fill="#4b6bb2"></path><path d="m366.783 279.088h-4.943c-2.841 0-5.145-2.303-5.145-5.145s2.304-5.145 5.145-5.145h4.943c2.841 0 5.145 2.303 5.145 5.145s-2.304 5.145-5.145 5.145z" fill="#4b6bb2"></path><path d="m436.647 238.911h-5.395c-2.841 0-5.145-2.303-5.145-5.145s2.303-5.145 5.145-5.145h5.395c2.841 0 5.145 2.303 5.145 5.145s-2.303 5.145-5.145 5.145z" fill="#73c3f9"></path><path d="m414.045 299.591h-31.483c-2.841 0-5.145-2.303-5.145-5.145s2.304-5.145 5.145-5.145h31.483c2.841 0 5.145 2.303 5.145 5.145s-2.303 5.145-5.145 5.145z" fill="#73c3f9"></path><path d="m366.783 299.591h-4.943c-2.841 0-5.145-2.303-5.145-5.145s2.304-5.145 5.145-5.145h4.943c2.841 0 5.145 2.303 5.145 5.145s-2.304 5.145-5.145 5.145z" fill="#4b6bb2"></path><path d="m436.647 299.591h-5.395c-2.841 0-5.145-2.303-5.145-5.145s2.303-5.145 5.145-5.145h5.395c2.841 0 5.145 2.303 5.145 5.145s-2.303 5.145-5.145 5.145z" fill="#73c3f9"></path></g></svg>